<svg width="88" height="88" viewBox="0 0 88 88" fill="none" xmlns="http://www.w3.org/2000/svg">
<g clip-path="url(#clip0_11516_248349)">
<path d="M2.0038 26.4138C4.80528 14.2799 14.28 4.80523 26.4139 2.00377C37.9857 -0.667918 50.0143 -0.667927 61.5861 2.00376C73.72 4.80523 83.1948 14.2799 85.9962 26.4139C88.6679 37.9857 88.6679 50.0143 85.9962 61.5861C83.1948 73.7201 73.72 83.1948 61.5861 85.9962C50.0143 88.6679 37.9857 88.6679 26.4139 85.9962C14.28 83.1948 4.80528 73.7201 2.0038 61.5862C-0.667934 50.0143 -0.667934 37.9857 2.0038 26.4138Z" fill="#E9EDF6"/>
<mask id="mask0_11516_248349" style="mask-type:alpha" maskUnits="userSpaceOnUse" x="0" y="0" width="88" height="88">
<path d="M2.0038 26.4138C4.80528 14.2799 14.28 4.80523 26.4139 2.00377C37.9857 -0.667918 50.0142 -0.667927 61.5861 2.00376C73.72 4.80523 83.1947 14.2799 85.9962 26.4139C88.6679 37.9857 88.6679 50.0143 85.9962 61.5861C83.1947 73.7201 73.72 83.1948 61.5861 85.9962C50.0143 88.6679 37.9857 88.6679 26.4139 85.9962C14.28 83.1948 4.80528 73.7201 2.0038 61.5862C-0.667934 50.0143 -0.667934 37.9857 2.0038 26.4138Z" fill="#E9EDF6"/>
</mask>
<g mask="url(#mask0_11516_248349)">
<path d="M34.4973 10.7638C33.5873 10.9632 32.451 11.8613 30.746 13.7269C26.3977 18.4715 25.4315 21.9606 26.5396 28.8693C26.8943 31.0776 27.2636 33.314 27.3346 33.8266C27.4202 34.3539 27.2355 34.8518 26.9224 34.9803C25.6001 35.4929 27.1352 44.2111 28.784 45.6217C29.2243 45.9924 29.9631 47.5302 30.4328 49.0412C30.4475 49.0988 30.4756 49.1684 30.4904 49.2259C30.5332 49.1831 30.5466 49.1684 30.5894 49.1122C30.8303 51.1639 34.1708 58.885 41.2479 61.7344C37.6665 60.7948 36.2894 59.779 33.9593 57.8571C33.9379 58.2947 33.8656 61.4506 33.8616 61.8254C33.8134 66.693 27.906 68.5212 26.0792 69.4742C23.4253 70.858 22.6678 72.1763 18.717 72.6889C12.5781 73.4866 10.1624 74.1852 8.01573 75.8234C6.02563 77.3478 4.99779 79.4397 4.08103 82.5889C3.44532 84.7718 3.30078 88.1632 3.30078 89.1001H83.6008C83.6008 87.7617 83.1912 84.7731 82.6706 82.7896C81.6334 78.8334 77.858 74.0875 73.491 73.5147C63.2086 72.1643 63.4843 70.3749 59.7222 69.0459C51.7939 66.246 53.3745 63.2307 53.0373 58.8435C52.8365 56.2323 53.9661 55.701 55.1318 53.3013C55.6872 52.1596 56.4099 50.0249 56.8649 48.6009C57.3199 47.1769 57.9449 45.9228 58.2434 45.8091C59.0678 45.4959 60.4744 41.3081 60.7434 38.3878C60.9428 36.2932 60.8719 35.7097 60.3593 35.339C59.8333 34.9401 60.0341 34.3981 60.3339 31.8632C60.916 26.7921 61.0177 21.8629 60.1933 19.8406C59.4974 18.1021 57.3052 13.5971 53.4107 11.6632C51.9479 10.9378 49.1802 9.83229 47.2289 9.41204C38.4186 7.51422 35.2066 10.6233 34.496 10.7651L34.4973 10.7638Z" fill="#B1B4B9"/>
</g>
</g>
<defs>
<clipPath id="clip0_11516_248349">
<rect width="88" height="88" fill="white"/>
</clipPath>
</defs>
</svg>
