<svg width="24" height="24" viewBox="0 0 24 24" fill="none" xmlns="http://www.w3.org/2000/svg">
<path fill-rule="evenodd" clip-rule="evenodd" d="M3.62999 6.79161L9.01997 2.59162C10.37 1.54163 12.62 1.49163 14.0199 2.47162L20.1999 6.80161C21.1899 7.4916 21.9999 9.0416 21.9999 10.2516V17.5316C21.9999 19.8416 20.1099 21.7415 17.7899 21.7415H6.20998C3.88999 21.7415 2 19.8415 2 17.5216V10.1116C2 8.9816 2.73 7.4916 3.62999 6.79161ZM12.75 14.1626C12.75 13.7484 12.4142 13.4126 12 13.4126C11.5858 13.4126 11.25 13.7484 11.25 14.1626V16.8917C11.25 17.3059 11.5858 17.6417 12 17.6417C12.4142 17.6417 12.75 17.3059 12.75 16.8917V14.1626Z" fill="#0097F5"/>
</svg>
