<svg width="52" height="52" viewBox="0 0 52 52" fill="none" xmlns="http://www.w3.org/2000/svg">
<path d="M52 26C52 40.3594 40.3594 52 26 52C11.6406 52 0 40.3594 0 26C0 11.6406 11.6406 0 26 0C40.3594 0 52 11.6406 52 26Z" fill="#0097F5"/>
<ellipse cx="18.7124" cy="15.2881" rx="2.82959" ry="2.82959" fill="#F7F7F7"/>
<ellipse cx="26.4019" cy="15.2881" rx="2.82959" ry="2.82959" fill="#F7F7F7"/>
<ellipse cx="34.0933" cy="15.2881" rx="2.82959" ry="2.82959" fill="#F7F7F7"/>
<ellipse cx="34.0933" cy="22.9785" rx="2.82959" ry="2.82959" fill="#F7F7F7"/>
<ellipse cx="26.4019" cy="22.9785" rx="2.82959" ry="2.82959" fill="#F7F7F7"/>
<circle cx="18.7105" cy="22.9785" r="2.82959" fill="#F7F7F7"/>
<ellipse cx="18.7105" cy="30.6689" rx="2.82959" ry="2.82959" fill="#F7F7F7"/>
<ellipse cx="26.4019" cy="30.6689" rx="2.82959" ry="2.82959" fill="#F7F7F7"/>
<ellipse cx="34.0933" cy="30.6689" rx="2.82959" ry="2.82959" fill="#F7F7F7"/>
<circle cx="26.4019" cy="38.3594" r="2.82959" fill="#F7F7F7"/>
</svg>
