<svg width="24" height="24" viewBox="0 0 24 24" fill="none" xmlns="http://www.w3.org/2000/svg">
<path d="M10.0831 10.5459C10.0341 10.5389 9.97112 10.5389 9.91512 10.5459C8.68312 10.5039 7.70312 9.49594 7.70312 8.25694C7.70312 6.98994 8.72512 5.96094 9.99912 5.96094C11.2661 5.96094 12.2951 6.98994 12.2951 8.25694C12.2881 9.49594 11.3151 10.5039 10.0831 10.5459Z" stroke="#707D95" stroke-width="1.5" stroke-linecap="round" stroke-linejoin="round"/>
<path d="M14.7172 15.1658C13.4712 16.3068 11.8192 16.9998 9.99925 16.9998C8.17925 16.9998 6.52725 16.3068 5.28125 15.1658C5.35125 14.5078 5.77125 13.8638 6.52025 13.3598C8.43825 12.0858 11.5742 12.0858 13.4782 13.3598C14.2272 13.8638 14.6472 14.5078 14.7172 15.1658Z" stroke="#707D95" stroke-width="1.5" stroke-linecap="round" stroke-linejoin="round"/>
<path d="M10 17C13.866 17 17 13.866 17 10C17 6.13401 13.866 3 10 3C6.13401 3 3 6.13401 3 10C3 13.866 6.13401 17 10 17Z" stroke="#707D95" stroke-width="1.5" stroke-linecap="round" stroke-linejoin="round"/>
<path d="M16 17L20 21" stroke="#707D95" stroke-width="1.5" stroke-linecap="round"/>
</svg>
