<svg width="24" height="24" viewBox="0 0 24 24" fill="none" xmlns="http://www.w3.org/2000/svg">
<path d="M8.79232 18.4168H8.33398C4.66732 18.4168 2.83398 17.5002 2.83398 12.9168V8.3335C2.83398 4.66683 4.66732 2.8335 8.33398 2.8335H15.6673C19.334 2.8335 21.1673 4.66683 21.1673 8.3335V12.9168C21.1673 16.5835 19.334 18.4168 15.6673 18.4168H15.209C14.9248 18.4168 14.6498 18.5543 14.4757 18.7835L13.1007 20.6168C12.4957 21.4235 11.5057 21.4235 10.9007 20.6168L9.52565 18.7835C9.37898 18.5818 9.03982 18.4168 8.79232 18.4168Z" stroke="#707D95" stroke-width="1.5" stroke-miterlimit="10" stroke-linecap="round" stroke-linejoin="round"/>
<path d="M7.41602 8.3335H16.5827" stroke="#707D95" stroke-width="1.5" stroke-linecap="round" stroke-linejoin="round"/>
<path d="M7.41602 12.9165H12.916" stroke="#707D95" stroke-width="1.5" stroke-linecap="round" stroke-linejoin="round"/>
</svg>
