<svg width="24" height="24" viewBox="0 0 24 24" fill="none" xmlns="http://www.w3.org/2000/svg">
<path d="M12.5003 15.9706C14.378 15.9706 15.8989 14.4497 15.8989 12.5719V7.89869C15.8989 6.02092 14.378 4.5 12.5003 4.5C10.6225 4.5 9.10156 6.02092 9.10156 7.89869V12.5719C9.10156 14.4497 10.6225 15.9706 12.5003 15.9706Z" stroke="#707D95" stroke-width="1.5" stroke-linecap="round" stroke-linejoin="round"/>
<path d="M6 11V12.4444C6 16.0301 8.91438 18.9444 12.5 18.9444C16.0856 18.9444 19 16.0301 19 12.4444V11" stroke="#707D95" stroke-width="1.5" stroke-linecap="round" stroke-linejoin="round"/>
<path d="M11.3184 8.26401C12.0831 7.98361 12.9157 7.98361 13.6805 8.26401" stroke="#707D95" stroke-linecap="round" stroke-linejoin="round"/>
<path d="M11.8203 10.065C12.2706 9.94609 12.738 9.94609 13.1883 10.065" stroke="#707D95" stroke-linecap="round" stroke-linejoin="round"/>
<path d="M12.5 18.9443V21.4934" stroke="#707D95" stroke-width="1.5" stroke-linecap="round" stroke-linejoin="round"/>
</svg>
